<svg width="32" height="46" viewBox="0 0 32 46" fill="none" xmlns="http://www.w3.org/2000/svg">
<path d="M17.96 0V6.75586H22.6006C24.873 6.75574 27.0625 7.61119 28.7334 9.15137C30.4043 10.6916 31.4347 12.8043 31.6191 15.0693H27.2129C27.0319 13.9773 26.4686 12.9851 25.624 12.2695C24.7793 11.554 23.7076 11.1611 22.6006 11.1621H9.0293C7.89247 11.1184 6.77897 11.4918 5.89746 12.2109C5.01583 12.9303 4.42643 13.9466 4.24121 15.0693C4.2259 15.3139 4.2259 15.5592 4.24121 15.8037C4.23311 16.432 4.35233 17.0554 4.59082 17.6367C4.82932 18.218 5.18286 18.745 5.62988 19.1865C6.07693 19.6281 6.60816 19.9757 7.19238 20.207C7.70343 20.4093 8.24571 20.5194 8.79395 20.5332H22.8066C24.9498 20.4812 27.0387 21.2126 28.6816 22.5898C29.6983 23.4306 30.5176 24.4848 31.0811 25.6777C31.6445 26.8706 31.9388 28.1729 31.9424 29.4922V30.4912C31.69 32.6982 30.634 34.735 28.9766 36.2139C27.3189 37.6928 25.1746 38.5107 22.9531 38.5107H17.96V45.1787H14.2881V38.5107H9.38184C7.16044 38.5106 5.01698 37.6927 3.35938 36.2139C1.70175 34.735 0.645993 32.6983 0.393555 30.4912H4.8291C5.06234 31.5248 5.6404 32.4485 6.46777 33.1104C7.29502 33.772 8.32251 34.1331 9.38184 34.1338H23.1885C24.248 34.1331 25.2762 33.7722 26.1035 33.1104C26.9308 32.4485 27.508 31.5247 27.7412 30.4912C27.7696 30.1589 27.7696 29.8245 27.7412 29.4922C27.7414 28.869 27.617 28.2521 27.375 27.6777C27.133 27.1033 26.7783 26.5827 26.332 26.1475C25.8858 25.7123 25.3566 25.3712 24.7764 25.1436C24.2686 24.9444 23.7306 24.8357 23.1865 24.8223H9.0293C6.6378 24.8222 4.34444 23.8716 2.65332 22.1807C1.81595 21.3433 1.15144 20.349 0.698242 19.2549C0.245039 18.1608 0.0117188 16.988 0.0117188 15.8037C-0.00359423 15.5592 -0.00359521 15.3139 0.0117188 15.0693C0.196181 12.8044 1.22572 10.6916 2.89648 9.15137C4.56729 7.61118 6.75691 6.75582 9.0293 6.75586H14.2881V0H17.96Z" fill="#B3E700"/>
<path d="M17.96 0V6.75586H22.6006C24.873 6.75574 27.0625 7.61119 28.7334 9.15137C30.4043 10.6916 31.4347 12.8043 31.6191 15.0693H27.2129C27.0319 13.9773 26.4686 12.9851 25.624 12.2695C24.7793 11.554 23.7076 11.1611 22.6006 11.1621H9.0293C7.89247 11.1184 6.77897 11.4918 5.89746 12.2109C5.01583 12.9303 4.42643 13.9466 4.24121 15.0693C4.2259 15.3139 4.2259 15.5592 4.24121 15.8037C4.23311 16.432 4.35233 17.0554 4.59082 17.6367C4.82932 18.218 5.18286 18.745 5.62988 19.1865C6.07693 19.6281 6.60816 19.9757 7.19238 20.207C7.70343 20.4093 8.24571 20.5194 8.79395 20.5332H22.8066C24.9498 20.4812 27.0387 21.2126 28.6816 22.5898C29.6983 23.4306 30.5176 24.4848 31.0811 25.6777C31.6445 26.8706 31.9388 28.1729 31.9424 29.4922V30.4912C31.69 32.6982 30.634 34.735 28.9766 36.2139C27.3189 37.6928 25.1746 38.5107 22.9531 38.5107H17.96V45.1787H14.2881V38.5107H9.38184C7.16044 38.5106 5.01698 37.6927 3.35938 36.2139C1.70175 34.735 0.645993 32.6983 0.393555 30.4912H4.8291C5.06234 31.5248 5.6404 32.4485 6.46777 33.1104C7.29502 33.772 8.32251 34.1331 9.38184 34.1338H23.1885C24.248 34.1331 25.2762 33.7722 26.1035 33.1104C26.9308 32.4485 27.508 31.5247 27.7412 30.4912C27.7696 30.1589 27.7696 29.8245 27.7412 29.4922C27.7414 28.869 27.617 28.2521 27.375 27.6777C27.133 27.1033 26.7783 26.5827 26.332 26.1475C25.8858 25.7123 25.3566 25.3712 24.7764 25.1436C24.2686 24.9444 23.7306 24.8357 23.1865 24.8223H9.0293C6.6378 24.8222 4.34444 23.8716 2.65332 22.1807C1.81595 21.3433 1.15144 20.349 0.698242 19.2549C0.245039 18.1608 0.0117188 16.988 0.0117188 15.8037C-0.00359423 15.5592 -0.00359521 15.3139 0.0117188 15.0693C0.196181 12.8044 1.22572 10.6916 2.89648 9.15137C4.56729 7.61118 6.75691 6.75582 9.0293 6.75586H14.2881V0H17.96Z" stroke="#B3E700"/>
</svg>
