<svg width="78" height="78" viewBox="0 0 78 78" fill="none" xmlns="http://www.w3.org/2000/svg">
<circle cx="38.5133" cy="38.5133" r="38.5133" fill="#B3E700"/>
<path d="M48.3562 59.0538C46.5731 59.0538 45.0576 58.4298 43.8095 57.1817C42.5613 55.9335 41.9373 54.418 41.9373 52.6349C41.9373 52.421 41.9908 51.9217 42.0978 51.1372L27.0669 42.3647C26.4963 42.8996 25.8366 43.319 25.0877 43.6228C24.3388 43.9266 23.5365 44.0778 22.6806 44.0764C20.8976 44.0764 19.382 43.4524 18.1339 42.2042C16.8858 40.9561 16.2617 39.4406 16.2617 37.6575C16.2617 35.8745 16.8858 34.3589 18.1339 33.1108C19.382 31.8627 20.8976 31.2386 22.6806 31.2386C23.5365 31.2386 24.3388 31.3906 25.0877 31.6944C25.8366 31.9982 26.4963 32.4169 27.0669 32.9503L42.0978 24.1779C42.0264 23.9282 41.9822 23.6879 41.9651 23.4568C41.948 23.2257 41.9387 22.9668 41.9373 22.6801C41.9373 20.8971 42.5613 19.3815 43.8095 18.1334C45.0576 16.8853 46.5731 16.2612 48.3562 16.2612C50.1392 16.2612 51.6548 16.8853 52.9029 18.1334C54.151 19.3815 54.7751 20.8971 54.7751 22.6801C54.7751 24.4631 54.151 25.9787 52.9029 27.2268C51.6548 28.475 50.1392 29.099 48.3562 29.099C47.5003 29.099 46.698 28.9471 45.9491 28.6433C45.2002 28.3394 44.5405 27.9208 43.9699 27.3873L28.939 36.1598C29.0104 36.4094 29.0553 36.6505 29.0738 36.883C29.0924 37.1155 29.1009 37.3737 29.0995 37.6575C29.0981 37.9414 29.0895 38.2003 29.0738 38.4342C29.0581 38.6681 29.0132 38.9085 28.939 39.1553L43.9699 47.9277C44.5405 47.3928 45.2002 46.9742 45.9491 46.6718C46.698 46.3694 47.5003 46.2175 48.3562 46.216C50.1392 46.216 51.6548 46.8401 52.9029 48.0882C54.151 49.3363 54.7751 50.8519 54.7751 52.6349C54.7751 54.418 54.151 55.9335 52.9029 57.1817C51.6548 58.4298 50.1392 59.0538 48.3562 59.0538ZM48.3562 54.7746C48.9624 54.7746 49.4709 54.5699 49.8817 54.1605C50.2925 53.7511 50.4972 53.2426 50.4958 52.6349C50.4944 52.0273 50.289 51.5195 49.8796 51.1115C49.4702 50.7036 48.9624 50.4982 48.3562 50.4953C47.7499 50.4925 47.2421 50.6979 46.8328 51.1115C46.4234 51.5252 46.218 52.033 46.2165 52.6349C46.2151 53.2369 46.4205 53.7454 46.8328 54.1605C47.245 54.5756 47.7528 54.7803 48.3562 54.7746ZM22.6806 39.7972C23.2868 39.7972 23.7954 39.5918 24.2062 39.1809C24.617 38.7701 24.8217 38.2623 24.8202 37.6575C24.8188 37.0527 24.6134 36.5449 24.204 36.1341C23.7946 35.7233 23.2868 35.5179 22.6806 35.5179C22.0744 35.5179 21.5666 35.7233 21.1572 36.1341C20.7478 36.5449 20.5424 37.0527 20.541 37.6575C20.5396 38.2623 20.745 38.7709 21.1572 39.1831C21.5694 39.5953 22.0772 39.8 22.6806 39.7972ZM48.3562 24.8197C48.9624 24.8197 49.4709 24.6143 49.8817 24.2035C50.2925 23.7927 50.4972 23.2849 50.4958 22.6801C50.4944 22.0753 50.289 21.5675 49.8796 21.1567C49.4702 20.7459 48.9624 20.5405 48.3562 20.5405C47.7499 20.5405 47.2421 20.7459 46.8328 21.1567C46.4234 21.5675 46.218 22.0753 46.2165 22.6801C46.2151 23.2849 46.4205 23.7934 46.8328 24.2057C47.245 24.6179 47.7528 24.8226 48.3562 24.8197Z" fill="black"/>
</svg>
