<svg width="78" height="78" viewBox="0 0 78 78" fill="none" xmlns="http://www.w3.org/2000/svg">
<circle cx="38.5133" cy="38.5133" r="38.5133" fill="#B3E700"/>
<g clip-path="url(#clip0_6090_52)">
<path d="M41.0255 40.9737H36.6756C36.009 40.9742 35.3633 41.2066 34.8493 41.6311C34.3352 42.0556 33.9849 42.6457 33.8584 43.3002C33.7319 43.9548 33.8371 44.6329 34.1559 45.2184C34.4748 45.8038 34.9874 46.2601 35.6058 46.5089L40.022 48.2763C40.6405 48.5251 41.1531 48.9814 41.4719 49.5669C41.7907 50.1523 41.8959 50.8305 41.7694 51.485C41.6429 52.1395 41.2926 52.7296 40.7786 53.1541C40.2646 53.5786 39.6189 53.811 38.9522 53.8115H34.6066M37.8161 40.9737V39.369M37.8161 55.4162V53.8115M26.583 31.3454H49.0491M45.4246 24.4686L48.5014 18.315C48.6517 18.0139 48.7035 17.673 48.6495 17.3408C48.5955 17.0085 48.4383 16.7017 48.2003 16.4637C47.9623 16.2256 47.6554 16.0685 47.3232 16.0145C46.9909 15.9604 46.6501 16.0122 46.3489 16.1626L42.2836 18.1909C41.9338 18.3656 41.5323 18.4065 41.1545 18.306C40.7767 18.2055 40.4486 17.9706 40.2317 17.6453L39.1555 16.0128C39.0089 15.793 38.8104 15.6128 38.5775 15.4882C38.3446 15.3636 38.0845 15.2983 37.8203 15.2983C37.5562 15.2983 37.2961 15.3636 37.0632 15.4882C36.8303 15.6128 36.6318 15.793 36.4852 16.0128L35.3961 17.6453C35.1793 17.9706 34.8511 18.2055 34.4733 18.306C34.0955 18.4065 33.694 18.3656 33.3442 18.1909L29.2854 16.1626C28.9841 16.0129 28.6435 15.9616 28.3115 16.0159C27.9795 16.0701 27.6729 16.2272 27.4349 16.4649C27.197 16.7027 27.0396 17.0091 26.985 17.341C26.9305 17.6729 26.9814 18.0136 27.1308 18.315L30.1476 24.3488" stroke="black" stroke-width="4" stroke-linecap="round" stroke-linejoin="round"/>
<path d="M27.4665 36.1597L21.5611 43.0065C20.116 44.8849 19.2257 47.1305 18.9911 49.4888C18.7564 51.8472 19.1868 54.2241 20.2334 56.3505C21.28 58.4769 22.901 60.2678 24.913 61.5203C26.9249 62.7729 29.2474 63.4371 31.6174 63.4378H44.0058C46.3758 63.4371 48.6983 62.7729 50.7103 61.5203C52.7222 60.2678 54.3433 58.4769 55.3899 56.3505C56.4365 54.2241 56.8668 51.8472 56.6321 49.4888C56.3975 47.1305 55.5072 44.8849 54.0621 43.0065L48.1567 36.1597" stroke="black" stroke-width="5" stroke-linecap="round" stroke-linejoin="round"/>
</g>
<defs>
<clipPath id="clip0_6090_52">
<rect width="51.3511" height="51.3511" fill="white" transform="translate(11.9824 13.6938)"/>
</clipPath>
</defs>
</svg>
