<svg width="170" height="170" viewBox="0 0 170 170" fill="none" xmlns="http://www.w3.org/2000/svg">
<path d="M85 0C73.8376 0 62.7846 2.19859 52.4719 6.47025C42.1592 10.7419 32.7889 17.0029 24.8959 24.8959C17.0029 32.7889 10.7419 42.1592 6.47024 52.4719C2.19859 62.7846 -4.87922e-07 73.8376 0 85C4.87922e-07 96.1624 2.19859 107.215 6.47024 117.528C10.7419 127.841 17.0029 137.211 24.8959 145.104C32.7889 152.997 42.1592 159.258 52.4719 163.53C62.7846 167.801 73.8376 170 85 170L85 85L85 0Z" fill="#B3E700"/>
<mask id="path-2-inside-1_6090_58" fill="white">
<path d="M85 170C96.1624 170 107.215 167.801 117.528 163.53C127.841 159.258 137.211 152.997 145.104 145.104C152.997 137.211 159.258 127.841 163.53 117.528C167.801 107.215 170 96.1624 170 85C170 73.8376 167.801 62.7846 163.53 52.4719C159.258 42.1592 152.997 32.7889 145.104 24.8959C137.211 17.0029 127.841 10.7419 117.528 6.47024C107.215 2.19859 96.1624 -9.75844e-07 85 0L85 85L85 170Z"/>
</mask>
<path d="M85 170C96.1624 170 107.215 167.801 117.528 163.53C127.841 159.258 137.211 152.997 145.104 145.104C152.997 137.211 159.258 127.841 163.53 117.528C167.801 107.215 170 96.1624 170 85C170 73.8376 167.801 62.7846 163.53 52.4719C159.258 42.1592 152.997 32.7889 145.104 24.8959C137.211 17.0029 127.841 10.7419 117.528 6.47024C107.215 2.19859 96.1624 -9.75844e-07 85 0L85 85L85 170Z" fill="#0F120F" stroke="#B3E700" stroke-width="2" mask="url(#path-2-inside-1_6090_58)"/>
<circle cx="85" cy="85" r="67.5" fill="#0F120F" stroke="#B3E700"/>
<path d="M87.8223 52.1323V61.7925H94.4092C97.6343 61.7924 100.741 63.0159 103.112 65.2183C105.484 67.4205 106.946 70.4407 107.208 73.6792H100.954C100.697 72.1178 99.8979 70.6993 98.6992 69.6763C97.5005 68.6532 95.9802 68.0919 94.4092 68.0933H75.1484C73.5347 68.0306 71.9534 68.5637 70.7021 69.5923C69.4511 70.6208 68.6155 72.0741 68.3525 73.6792C68.3308 74.0289 68.3308 74.3803 68.3525 74.73C68.3411 75.6283 68.5102 76.5199 68.8486 77.3511C69.1871 78.182 69.6881 78.9357 70.3223 79.5669C70.9567 80.1983 71.7119 80.6942 72.541 81.0249C73.2666 81.3143 74.0361 81.472 74.8145 81.4917H95.2705C98.1109 81.5526 100.853 82.586 103.039 84.4321C104.482 85.6344 105.645 87.1423 106.444 88.8481C107.244 90.554 107.661 92.4166 107.666 94.3032V95.731C107.308 98.8868 105.81 101.8 103.457 103.915C101.104 106.029 98.0619 107.198 94.9092 107.198H87.8223V116.732H82.6104V107.198H75.6484C72.4957 107.198 69.4532 106.029 67.1006 103.915C64.748 101.8 63.2499 98.8868 62.8916 95.731H69.1865C69.5175 97.2088 70.3375 98.5296 71.5117 99.4761C72.6859 100.422 74.1447 100.938 75.6484 100.939H95.2432C96.7468 100.938 98.2058 100.422 99.3799 99.4761C100.554 98.5296 101.374 97.2088 101.705 95.731C101.745 95.2559 101.745 94.7783 101.705 94.3032C101.705 93.4119 101.528 92.5289 101.185 91.7075C100.841 90.8862 100.337 90.1423 99.7041 89.52C99.0709 88.8978 98.3205 88.409 97.4971 88.0835C96.7764 87.7986 96.0125 87.6438 95.2402 87.6245H75.1484C71.754 87.6245 68.4979 86.2664 66.0977 83.8481C64.9092 82.6508 63.9664 81.229 63.3232 79.6646C62.6801 78.1002 62.3496 76.4233 62.3496 74.73C62.3279 74.3803 62.3279 74.0289 62.3496 73.6792C62.6115 70.4408 64.0732 67.4205 66.4443 65.2183C68.8157 63.0159 71.9232 61.7923 75.1484 61.7925H82.6104V52.1323H87.8223Z" fill="#B3E700"/>
<path d="M87.8223 52.1323V61.7925H94.4092C97.6343 61.7924 100.741 63.0159 103.112 65.2183C105.484 67.4205 106.946 70.4407 107.208 73.6792H100.954C100.697 72.1178 99.8979 70.6993 98.6992 69.6763C97.5005 68.6532 95.9802 68.0919 94.4092 68.0933H75.1484C73.5347 68.0306 71.9534 68.5637 70.7021 69.5923C69.4511 70.6208 68.6155 72.0741 68.3525 73.6792C68.3308 74.0289 68.3308 74.3803 68.3525 74.73C68.3411 75.6283 68.5102 76.5199 68.8486 77.3511C69.1871 78.182 69.6881 78.9357 70.3223 79.5669C70.9567 80.1983 71.7119 80.6942 72.541 81.0249C73.2666 81.3143 74.0361 81.472 74.8145 81.4917H95.2705C98.1109 81.5526 100.853 82.586 103.039 84.4321C104.482 85.6344 105.645 87.1423 106.444 88.8481C107.244 90.554 107.661 92.4166 107.666 94.3032V95.731C107.308 98.8868 105.81 101.8 103.457 103.915C101.104 106.029 98.0619 107.198 94.9092 107.198H87.8223V116.732H82.6104V107.198H75.6484C72.4957 107.198 69.4532 106.029 67.1006 103.915C64.748 101.8 63.2499 98.8868 62.8916 95.731H69.1865C69.5175 97.2088 70.3375 98.5296 71.5117 99.4761C72.6859 100.422 74.1447 100.938 75.6484 100.939H95.2432C96.7468 100.938 98.2058 100.422 99.3799 99.4761C100.554 98.5296 101.374 97.2088 101.705 95.731C101.745 95.2559 101.745 94.7783 101.705 94.3032C101.705 93.4119 101.528 92.5289 101.185 91.7075C100.841 90.8862 100.337 90.1423 99.7041 89.52C99.0709 88.8978 98.3205 88.409 97.4971 88.0835C96.7764 87.7986 96.0125 87.6438 95.2402 87.6245H75.1484C71.754 87.6245 68.4979 86.2664 66.0977 83.8481C64.9092 82.6508 63.9664 81.229 63.3232 79.6646C62.6801 78.1002 62.3496 76.4233 62.3496 74.73C62.3279 74.3803 62.3279 74.0289 62.3496 73.6792C62.6115 70.4408 64.0732 67.4205 66.4443 65.2183C68.8157 63.0159 71.9232 61.7923 75.1484 61.7925H82.6104V52.1323H87.8223Z" stroke="#B3E700"/>
</svg>
